<svg version="1.1" xmlns="http://www.w3.org/2000/svg" xmlns:xlink="http://www.w3.org/1999/xlink" x="0px" y="0px" width="26.18" height="18px" 
viewBox="0 0 26.18 18" style="overflow:visible;enable-background:new 0 0 12.5 20;" xml:space="preserve">
<style type="text/css">
    .st0{fill:#000;}
</style>
<defs>
</defs>
<path class="st0" d="M12.98,16.69c-3.17,0-6.34-0.01-9.51,0c-0.82,0-1.66-0.03-1.91-0.87c-0.25-0.81-0.23-1.61,0.66-2.21 c1.05-0.7,2.04-1.45,
3.04-2.21c0.51-0.39,0.93-0.42,1.47,0.01c1.11,0.87,2.31,1.65,3.43,2.52c0.83,0.65,1.47,0.55,2.25-0.09 c1.7-1.39,3.5-2.69,5.23-4.06c0.47-0.37,
0.8-0.46,1.32-0.04c1.62,1.3,3.28,2.57,4.95,3.81c0.9,0.67,0.81,1.53,0.56,2.36 c-0.24,0.82-1.1,0.76-1.84,0.76C19.41,16.69,16.2,16.69,12.98,
16.69z M1.49,12.46c0-3.56-0.03-6.83,0.02-10.1 C1.53,1.45,2.36,1.3,3.22,1.3c6.55,0,13.11,0.01,19.67-0.01c1.23,0,1.73,0.48,1.72,1.56c-0.02,
2.78,0,5.55-0.01,8.33 c0,0.29,0.14,0.69-0.29,0.82c-0.32,0.09-0.53-0.21-0.76-0.38c-1.32-1.02-2.69-1.99-3.93-3.08c-0.97-0.85-1.68-0.77-2.63,
0.04 c-1.55,1.31-3.25,2.47-4.82,3.76c-0.76,0.63-1.28,0.54-1.98-0.03c-1.03-0.83-2.16-1.57-3.22-2.38C6.29,9.41,5.73,9.38,5.03,9.93 C3.97,10.76,
2.83,11.51,1.49,12.46z M13.05,0C9.76,0,6.46,0,3.16,0C1.04,0.01,0.02,0.9,0.01,2.79C0,6.9,0,11,0.01,15.11 c0.01,1.92,1.08,2.88,3.22,2.88C9.79,
18,16.34,18,22.9,17.99c2.11,0,3.24-0.97,3.25-2.88c0.04-4.07,0.04-8.13,0-12.2 c-0.02-2-1.1-2.9-3.33-2.9C19.56,0,16.31,0,13.05,0z"/>
<path class="st0" d="M10.41,4.37c1,0.1,1.64,0.53,1.63,1.49c-0.01,0.94-0.57,1.46-1.62,1.46C9.36,7.33,8.8,6.78,8.79,5.87 C8.77,4.93,
9.4,4.47,10.41,4.37z M10.43,3.07C8.69,3.09,7.3,4.36,7.31,5.92c0.01,1.54,1.49,2.82,3.2,2.77 c1.66-0.04,3.08-1.33,3.07-2.79C13.58,4.36,
12.12,3.05,10.43,3.07z"/>
</svg>
