<!-- Generator: Adobe Illustrator 25.1.0, SVG Export Plug-In  -->
<svg version="1.1" xmlns="http://www.w3.org/2000/svg" xmlns:xlink="http://www.w3.org/1999/xlink" x="0px" y="0px" width="12.5px"
	 height="20px" viewBox="0 0 12.5 20" style="overflow:visible;enable-background:new 0 0 12.5 20;" xml:space="preserve">
  <style type="text/css">
    .st0{fill:#FFFFFF;}
  </style>
  <defs>
  </defs>
  <path class="st0" d="M0.02,17.51c-0.08-0.75,0.43-1.36,0.99-1.95c1.47-1.57,2.92-3.17,4.43-4.71c0.6-0.61,0.67-1.02,0.03-1.67
    C3.83,7.52,2.24,5.81,0.7,4.07c-1.2-1.34-0.8-3.09,0.78-3.8C2.62-0.24,3.89-0.04,4.8,0.92c2.35,2.47,4.68,4.96,6.97,7.47
    c0.99,1.09,0.96,2.16-0.04,3.26c-2.28,2.49-4.58,4.95-6.9,7.4c-0.85,0.9-2.03,1.16-3.11,0.78C0.68,19.46,0.03,18.62,0.02,17.51z"/>
</svg>
